<svg width="1280" height="720" xmlns="http://www.w3.org/2000/svg" xmlns:xlink="http://www.w3.org/1999/xlink" overflow="hidden"><defs><linearGradient x1="1140" y1="860" x2="140" y2="-140" gradientUnits="userSpaceOnUse" spreadMethod="reflect" id="fill0"><stop offset="0" stop-color="#6F6F6F"/><stop offset="0.48" stop-color="#A8A8A8"/><stop offset="1" stop-color="#C9C9C9"/></linearGradient></defs><g><rect x="0" y="0" width="1280" height="720" fill="url(#fill0)"/><g><g><g><path d="M196.903 137.867 192.002 157.253 178.102 157.253 172.066 132.5C171.887 131.795 171.684 130.038 171.469 127.23L171.349 127.23C171.038 129.716 170.752 131.472 170.465 132.5L163.951 157.253 149.226 157.253 138.923 114.046 153.266 114.046 156.863 139.385C156.923 139.707 157.018 140.64 157.138 142.194L157.317 144.715 157.497 144.715C157.544 144.19 157.664 143.293 157.867 142.026 158.058 140.771 158.261 139.827 158.441 139.194L165.074 114.046 179.452 114.046 184.974 139.564 185.369 142.134 185.668 144.656 185.799 144.656 185.883 143.592 186.277 139.385 186.504 137.867 196.903 137.867ZM121.09 157.253 121.09 133.445C121.09 131.198 121.162 128.736 121.306 126.046L121.401 124.05 121.031 124.05C120.385 127.469 119.895 129.823 119.549 131.138L113.154 157.253 100.856 157.253 94.1625 131.437C93.9833 130.791 93.505 128.329 92.7401 124.05L92.3817 124.05C92.6565 130.839 92.7999 135.082 92.7999 136.779L92.7999 157.253 81.3738 157.253 81.3738 114.046 100.975 114.046 106.891 137.413C107.023 137.891 107.214 138.883 107.453 140.365 107.68 141.847 107.824 142.994 107.884 143.807L108.075 143.807C108.29 141.967 108.648 139.791 109.126 137.293L114.648 114.046 133.999 114.046 133.999 157.253 121.09 157.253Z" fill="#777777" fill-rule="evenodd" transform="matrix(1 0 0 1.00769 -79.0452 -104.871)"/><path d="M187.575 121.568C187.575 121.131 187.93 120.776 188.367 120.776L191.533 120.776C191.97 120.776 192.324 121.131 192.324 121.568L192.324 134.231C192.324 134.668 191.97 135.023 191.533 135.023L188.367 135.023C187.93 135.023 187.575 134.668 187.575 134.231Z" stroke="#777777" stroke-width="0.211055" stroke-miterlimit="8" fill="#AAAAAA" fill-rule="evenodd" transform="matrix(1 0 0 1.00769 -79.0452 -104.871)"/><path d="M194.54 114.656C194.54 114.19 194.918 113.812 195.385 113.812L198.761 113.812C199.228 113.812 199.606 114.19 199.606 114.656L199.606 134.495C199.606 134.961 199.228 135.339 198.761 135.339L195.385 135.339C194.918 135.339 194.54 134.961 194.54 134.495Z" stroke="#777777" stroke-width="0.211055" stroke-miterlimit="8" fill="#AAAAAA" fill-rule="evenodd" transform="matrix(1 0 0 1.00769 -79.0452 -104.871)"/><path d="M201.505 107.374C201.505 106.908 201.883 106.53 202.349 106.53L205.726 106.53C206.192 106.53 206.57 106.908 206.57 107.374L206.57 134.178C206.57 134.645 206.192 135.023 205.726 135.023L202.349 135.023C201.883 135.023 201.505 134.645 201.505 134.178Z" stroke="#777777" stroke-width="0.211055" stroke-miterlimit="8" fill="#AAAAAA" fill-rule="evenodd" transform="matrix(1 0 0 1.00769 -79.0452 -104.871)"/></g></g></g></g></svg>